<?xml version="1.0" standalone="no"?>
<!DOCTYPE svg PUBLIC "-//W3C//DTD SVG 20010904//EN"
 "http://www.w3.org/TR/2001/REC-SVG-20010904/DTD/svg10.dtd">
<svg version="1.0" xmlns="http://www.w3.org/2000/svg"
 width="100.000000pt" height="100.000000pt" viewBox="0 0 100.000000 100.000000"
 preserveAspectRatio="xMidYMid meet">
<metadata>
Created by potrace 1.16, written by Peter Selinger 2001-2019
</metadata>
<g transform="translate(0.000000,100.000000) scale(0.100000,-0.100000)"
fill="#ffffff" stroke="none">
<path d="M140 520 l0 -460 323 0 c311 0 325 -1 342 -20 10 -11 23 -20 29 -19
10 0 156 170 164 191 2 4 -19 8 -47 8 l-51 0 0 90 c0 83 -1 90 -20 90 -19 0
-20 7 -20 158 l0 157 -133 133 -132 132 -228 0 -227 0 0 -460z m560 295 l115
-115 -118 0 -117 0 0 115 c0 63 1 115 3 115 1 0 54 -52 117 -115z m-230 -266
c17 -38 34 -68 37 -65 3 3 20 33 38 68 30 58 36 63 69 66 20 2 36 0 36 -3 0
-3 -23 -44 -51 -90 l-51 -83 56 -92 57 -91 -43 3 c-42 3 -43 4 -80 76 l-38 73
-37 -76 -37 -75 -43 0 -43 0 55 85 c30 47 55 90 55 96 0 5 -22 48 -50 95 l-50
84 44 0 43 0 33 -71z m390 -279 c0 -90 0 -90 25 -90 l26 0 -38 -45 -37 -45
-44 42 c-43 42 -43 43 -18 46 26 3 26 4 26 93 l0 89 30 0 30 0 0 -90z"/>
</g>
</svg>
