<?xml version="1.0" standalone="no"?>
<!DOCTYPE svg PUBLIC "-//W3C//DTD SVG 20010904//EN"
 "http://www.w3.org/TR/2001/REC-SVG-20010904/DTD/svg10.dtd">
<svg version="1.0" xmlns="http://www.w3.org/2000/svg"
 width="375.000000pt" height="397.000000pt" viewBox="0 0 375.000000 397.000000"
 preserveAspectRatio="xMidYMid meet">
<metadata>
Created by potrace 1.16, written by Peter Selinger 2001-2019
</metadata>
<g transform="translate(0.000000,397.000000) scale(0.100000,-0.100000)"
fill="#000000" stroke="none">
<path d="M1800 3661 c0 -5 7 -14 15 -21 8 -7 15 -10 15 -7 0 14 264 -56 415
-111 83 -30 270 -122 340 -167 75 -48 218 -178 281 -253 104 -127 168 -292
173 -449 3 -99 -9 -140 -64 -212 -56 -76 -233 -256 -242 -248 -4 5 -8 45 -10
90 -3 96 -12 168 -23 182 -4 6 -10 29 -14 53 -15 99 -85 274 -150 375 -20 32
-36 60 -36 62 0 3 -12 23 -26 45 -23 34 -25 43 -15 72 6 18 31 57 56 85 79 90
55 98 -50 18 l-72 -56 -109 109 c-122 122 -236 212 -369 293 -49 29 -105 64
-123 76 -42 28 -120 58 -129 49 -3 -3 57 -68 133 -143 77 -76 155 -160 174
-188 98 -145 150 -226 178 -277 l32 -58 -71 -35 c-104 -53 -342 -139 -411
-149 -21 -3 -57 -10 -80 -15 -24 -5 -70 -10 -103 -10 -32 -1 -68 -4 -79 -7
-18 -6 -19 -2 -13 87 4 52 15 148 25 214 22 136 19 161 -13 137 -19 -14 -114
-217 -147 -312 -17 -52 -37 -100 -43 -106 -9 -9 -92 -27 -120 -25 -32 2 -308
50 -312 55 -13 12 17 69 107 200 16 24 102 126 135 161 30 32 193 167 250 207
28 20 97 60 154 90 165 85 141 100 -58 36 -137 -43 -322 -137 -431 -218 -52
-38 -102 -73 -110 -77 -20 -8 -137 -128 -175 -178 -16 -22 -42 -53 -57 -70
-15 -16 -28 -33 -28 -36 0 -3 -20 -14 -45 -25 -31 -12 -44 -23 -41 -34 18 -63
16 -82 -13 -168 -17 -49 -31 -100 -31 -114 0 -13 -4 -28 -9 -33 -32 -34 -61
-422 -37 -499 8 -26 7 -29 -10 -22 -41 16 -74 19 -74 6 0 -6 9 -14 19 -17 35
-9 80 -78 101 -157 63 -238 172 -429 335 -591 112 -112 128 -122 310 -206 37
-16 189 -57 260 -68 62 -11 286 -8 304 3 3 3 33 7 66 10 33 4 67 9 75 11 8 2
32 6 52 9 123 18 418 123 418 148 0 13 -31 22 -39 11 -3 -6 -37 -18 -75 -28
-38 -9 -81 -21 -95 -27 -115 -43 -430 -57 -561 -24 -116 29 -258 96 -365 172
-77 55 -215 207 -272 303 -30 51 -71 135 -68 140 2 1 28 -9 59 -23 30 -14 58
-26 61 -26 3 0 27 -9 51 -21 25 -11 71 -24 101 -29 81 -13 93 -19 146 -64 31
-26 60 -63 81 -106 72 -142 102 -188 175 -265 35 -37 59 -54 69 -50 13 5 12 9
-4 28 -42 48 -82 146 -118 295 -25 98 -32 92 102 91 64 -1 144 3 177 9 33 6
103 18 155 28 139 24 344 109 498 207 72 45 84 41 71 -26 -4 -23 -10 -85 -14
-137 -3 -52 -10 -122 -15 -155 -5 -33 -14 -102 -20 -154 -7 -51 -25 -139 -42
-195 -68 -231 -67 -226 -38 -226 14 0 28 16 46 53 15 28 39 70 54 92 72 106
190 388 261 626 35 118 58 248 59 329 0 61 19 98 94 179 56 59 55 59 106 121
25 30 63 79 85 108 l40 53 3 -97 c1 -54 -2 -111 -8 -128 -6 -17 -24 -87 -39
-156 -26 -113 -44 -162 -114 -310 -35 -75 -99 -183 -134 -226 -35 -44 -41 -64
-19 -64 14 0 85 69 128 125 12 17 31 39 40 49 76 84 183 283 226 421 72 230
73 233 79 400 4 139 2 172 -16 250 -34 149 -60 220 -115 320 -101 181 -280
364 -441 450 -38 21 -74 41 -80 45 -18 13 -149 59 -225 79 -41 11 -118 25
-170 30 -114 13 -360 14 -360 2z m468 -858 c20 -56 77 -242 106 -348 22 -81
36 -147 40 -190 13 -129 18 -237 12 -269 -6 -33 -14 -40 -75 -71 -103 -51
-315 -121 -476 -156 -63 -14 -468 -20 -480 -7 -19 18 -23 245 -10 539 l7 176
121 22 c139 26 221 54 350 118 111 55 208 118 302 194 38 32 72 56 76 54 3 -3
16 -30 27 -62z m-1463 -163 c84 -49 155 -81 260 -115 97 -32 100 -34 98 -62
-1 -15 -6 -88 -12 -162 -6 -73 -9 -172 -6 -220 6 -89 31 -267 41 -282 20 -34
-127 -9 -343 57 -77 23 -85 28 -107 67 -13 23 -27 62 -31 87 -4 25 -9 54 -12
65 -3 11 -4 112 -4 225 0 154 4 217 16 255 8 28 15 59 15 71 0 19 17 44 30 44
3 -1 28 -14 55 -30z"/>
<path d="M585 1110 c-84 -11 -140 -46 -185 -115 l-39 -60 14 -45 c9 -25 18
-52 21 -61 7 -20 81 -75 126 -93 18 -8 59 -17 92 -21 48 -5 69 -3 120 16 65
24 71 30 112 98 26 43 26 47 15 109 -12 66 -21 79 -85 126 -33 25 -118 59
-135 55 -3 -1 -28 -5 -56 -9z"/>
<path d="M3147 974 c-26 -27 -47 -54 -47 -60 0 -7 15 -34 33 -60 34 -49 34
-49 105 -58 l72 -9 55 43 c30 23 55 45 55 47 0 21 -56 123 -69 127 -9 3 -48 8
-87 12 l-70 6 -47 -48z"/>
<path d="M1005 765 c-42 -20 -53 -32 -72 -76 -29 -66 -29 -80 4 -137 34 -59
44 -67 118 -92 94 -31 163 -17 252 52 l53 40 0 74 c0 41 -4 74 -8 74 -5 0 -18
9 -30 20 -12 11 -43 31 -68 45 -65 35 -176 34 -249 0z"/>
<path d="M2652 741 l-43 -51 32 -60 c30 -57 33 -59 78 -65 25 -4 57 -8 71 -11
30 -6 140 62 140 86 0 26 -26 90 -47 116 -19 23 -30 27 -105 31 l-83 5 -43
-51z"/>
<path d="M2184 656 c-51 -24 -88 -61 -78 -78 3 -5 2 -14 -3 -21 -28 -36 6
-109 69 -152 51 -34 68 -36 138 -12 63 21 66 24 94 81 21 43 26 63 19 75 -5 9
-18 32 -29 51 -28 51 -35 56 -85 63 -24 3 -51 8 -59 11 -8 3 -38 -5 -66 -18z"/>
<path d="M1588 647 c-63 -30 -98 -85 -98 -155 0 -34 6 -45 44 -80 62 -57 79
-64 163 -64 74 1 76 2 132 45 56 45 56 45 59 105 3 59 2 62 -34 94 -20 18 -43
39 -50 46 -18 18 -182 25 -216 9z"/>
</g>
</svg>
